<svg width="32" height="32" viewBox="0 0 32 32" fill="none" xmlns="http://www.w3.org/2000/svg">
<g opacity="0.5" clip-path="url(#clip0_2_354)">
<path fill-rule="evenodd" clip-rule="evenodd" d="M23.0759 8.89609C21.2048 7.0228 18.7164 5.99069 16.0654 5.98959C10.6028 5.98959 6.15698 10.4353 6.15479 15.8994C6.15405 17.6461 6.61035 19.3512 7.47766 20.8541L6.07166 25.9896L11.3254 24.6114C12.7731 25.4011 14.4028 25.8172 16.0614 25.8177H16.0656C21.5276 25.8177 25.9739 21.3717 25.976 15.9073C25.977 13.2591 24.9471 10.7693 23.0759 8.89609ZM16.0654 24.144H16.062C14.584 24.1434 13.1344 23.7462 11.8695 22.9958L11.5688 22.8172L8.45117 23.6351L9.28332 20.5954L9.0874 20.2838C8.26282 18.9723 7.82739 17.4564 7.82812 15.9C7.82983 11.3584 11.5251 7.66342 16.0687 7.66342C18.2689 7.66415 20.3372 8.52206 21.8923 10.0791C23.4475 11.6361 24.3035 13.7057 24.3027 15.9067C24.3008 20.4487 20.6057 24.144 16.0654 24.144ZM20.5837 17.9747C20.3362 17.8507 19.1187 17.2518 18.8916 17.169C18.6648 17.0864 18.4995 17.0453 18.3346 17.2931C18.1694 17.5409 17.6949 18.0987 17.5504 18.2639C17.4059 18.4292 17.2616 18.4499 17.0139 18.3259C16.7662 18.202 15.9684 17.9404 15.0225 17.0968C14.2864 16.4402 13.7894 15.6292 13.6449 15.3814C13.5006 15.1334 13.6437 15.0123 13.7535 14.8761C14.0216 14.5432 14.29 14.1942 14.3726 14.029C14.4552 13.8637 14.4138 13.7191 14.3518 13.5952C14.29 13.4713 13.7948 12.2524 13.5885 11.7564C13.3873 11.2738 13.1833 11.339 13.0312 11.3314C12.887 11.3242 12.7218 11.3227 12.5566 11.3227C12.3916 11.3227 12.1233 11.3846 11.8962 11.6327C11.6693 11.8806 11.0297 12.4796 11.0297 13.6985C11.0297 14.9173 11.917 16.0948 12.0408 16.2601C12.1645 16.4254 13.787 18.9266 16.271 19.9991C16.8618 20.2545 17.323 20.4067 17.6827 20.5208C18.276 20.7093 18.8157 20.6827 19.2424 20.619C19.7183 20.5478 20.7074 20.0199 20.9139 19.4415C21.1202 18.863 21.1202 18.3673 21.0582 18.2639C20.9965 18.1606 20.8313 18.0987 20.5837 17.9747Z" fill="#181A31"/>
</g>
<defs>
<clipPath id="clip0_2_354">
<rect width="21.3333" height="21.3333" fill="white" transform="translate(5.33337 5.33334)"/>
</clipPath>
</defs>
</svg>
