<svg width="38" height="38" viewBox="0 0 38 38" fill="none" xmlns="http://www.w3.org/2000/svg">
<path d="M38 19C38 29.4934 29.4934 38 19 38C8.50659 38 0 29.4934 0 19C0 8.50659 8.50659 0 19 0C29.4934 0 38 8.50659 38 19Z" fill="#FF8345"/>
<path fill-rule="evenodd" clip-rule="evenodd" d="M19 35C27.8366 35 35 27.8366 35 19C35 10.1634 27.8366 3 19 3C10.1634 3 3 10.1634 3 19C3 27.8366 10.1634 35 19 35ZM19 38C29.4934 38 38 29.4934 38 19C38 8.50659 29.4934 0 19 0C8.50659 0 0 8.50659 0 19C0 29.4934 8.50659 38 19 38Z" fill="white"/>
<path fill-rule="evenodd" clip-rule="evenodd" d="M19.5 11.9584C20.0523 11.9584 20.5 12.4061 20.5 12.9584V17.5H25.0404C25.5927 17.5 26.0404 17.9477 26.0404 18.5C26.0404 19.0523 25.5927 19.5 25.0404 19.5H20.5V24.0417C20.5 24.594 20.0523 25.0417 19.5 25.0417C18.9477 25.0417 18.5 24.594 18.5 24.0417V19.5H13.957C13.4047 19.5 12.957 19.0523 12.957 18.5C12.957 17.9477 13.4047 17.5 13.957 17.5H18.5V12.9584C18.5 12.4061 18.9477 11.9584 19.5 11.9584Z" fill="white"/>
</svg>
