<svg width="18" height="18" viewBox="0 0 18 18" fill="none" xmlns="http://www.w3.org/2000/svg">
<path d="M6 1.5C5.05573 1.5 4.16656 1.94458 3.6 2.7L2.85 3.7C2.46053 4.21929 2.25 4.85089 2.25 5.5V15C2.25 15.3978 2.40804 15.7794 2.68934 16.0607C2.97064 16.342 3.35218 16.5 3.75 16.5H14.25C14.6478 16.5 15.0294 16.342 15.3107 16.0607C15.592 15.7794 15.75 15.3978 15.75 15V5.5C15.75 4.85089 15.5395 4.21929 15.15 3.7L14.4 2.7C13.8334 1.94458 12.9443 1.5 12 1.5H6Z" fill="currentColor"/>
<path fill-rule="evenodd" clip-rule="evenodd" d="M1.5 4.5C1.5 4.08579 1.83579 3.75 2.25 3.75H15.75C16.1642 3.75 16.5 4.08579 16.5 4.5C16.5 4.91421 16.1642 5.25 15.75 5.25H2.25C1.83579 5.25 1.5 4.91421 1.5 4.5Z" fill="white"/>
<path fill-rule="evenodd" clip-rule="evenodd" d="M6 6.75C6.41421 6.75 6.75 7.08579 6.75 7.5C6.75 8.09674 6.98705 8.66903 7.40901 9.09099C7.83097 9.51295 8.40326 9.75 9 9.75C9.59674 9.75 10.169 9.51295 10.591 9.09099C11.0129 8.66903 11.25 8.09674 11.25 7.5C11.25 7.08579 11.5858 6.75 12 6.75C12.4142 6.75 12.75 7.08579 12.75 7.5C12.75 8.49456 12.3549 9.44839 11.6517 10.1517C10.9484 10.8549 9.99456 11.25 9 11.25C8.00544 11.25 7.05161 10.8549 6.34835 10.1517C5.64509 9.44839 5.25 8.49456 5.25 7.5C5.25 7.08579 5.58579 6.75 6 6.75Z" fill="white"/>
</svg>
